<svg xmlns="http://www.w3.org/2000/svg" width="2500" height="330" viewBox="0 0 120.409 15.918"><path d="M117.034.274c-1.838 0-3.393 1.413-3.393 3.331 0 1.935 1.555 3.348 3.393 3.348 1.82 0 3.375-1.413 3.375-3.348 0-1.917-1.555-3.331-3.375-3.331zm0 6.122c-1.528 0-2.721-1.184-2.721-2.792 0-1.582 1.193-2.774 2.721-2.774 1.511 0 2.704 1.192 2.704 2.774 0 1.609-1.193 2.792-2.704 2.792z"/><path d="M118.571 2.783c0-.76-.45-1.096-1.36-1.096h-1.467V5.54h.583V3.87h.672l1.016 1.67h.654l-1.096-1.696c.566-.072.998-.371.998-1.061zm-2.244.592V2.183h.795c.406 0 .839.088.839.565 0 .592-.442.627-.937.627h-.697zM26.872 15.918h84.272V0H26.872v15.918zm1.439-14.48h81.39v13.046h-81.39V1.438zM12.784 15.918h11.629V0H12.784v15.918zM20.33 2.477h1.608v10.967l-1.608-.002a5.483 5.483 0 0 1 0-10.965zM0 15.918h11.629V0H0v15.918zM2.474 2.477h1.608a5.482 5.482 0 0 1 0 10.964l-1.608.002V2.477z"/><path d="M35.264 4.209H31.87v7.349h3.603c2.303 0 2.479-1.675 2.479-3.503v-.706c0-2.06-.485-3.14-2.688-3.14zm1.861 4.143c0 .683-.033 1.531-.418 2.027-.364.463-1.08.463-1.62.463h-2.402V4.947h2.567c.958 0 1.653.165 1.796 1.3.077.573.077 1.157.077 1.741v.364zM42.322 4.132c-1.983 0-3.008.177-3.008 2.479v2.531c0 2.302 1.025 2.479 3.008 2.479s3.008-.177 3.008-2.479V6.611c0-2.302-1.024-2.479-3.008-2.479zm2.182 4.977c0 1.807-.65 1.817-2.226 1.817-1.575 0-2.137-.011-2.137-1.817V6.644c0-1.807.562-1.817 2.137-1.817 1.576 0 2.226.011 2.226 1.817v2.465zM47.448 4.209h-.87v7.349h4.605v-.761h-3.735zM56.463 7.701c.837-.297.947-.837.947-1.674 0-1.399-.584-1.818-1.895-1.818h-3.537v7.349h3.746c1.476 0 1.906-.793 1.906-2.115 0-.96-.198-1.477-1.167-1.742zm-3.658-2.764h2.623c.881 0 1.134.264 1.134 1.156 0 1.058-.341 1.322-1.432 1.322h-2.325V4.937zm2.269 5.916h-2.27v-2.7h2.909c.925 0 1.058.573 1.058 1.333 0 1.279-.44 1.367-1.697 1.367zM61.085 7.646l-2.181-3.437h-.959l2.7 4.274v3.075h.826V8.483l2.776-4.274h-.98zM69.19 7.393c-.936-.055-1.09-.474-1.09-1.278 0-.353.055-.815.386-1.024.341-.21 1.102-.221 1.52-.221h.397c1.135 0 1.355.265 1.421 1.355h.805v-.11c0-1.873-1.113-1.95-2.645-1.95h-.198c-1.531 0-2.512.221-2.512 1.994 0 2.236 1.708 1.983 3.515 2.082.958.044 1.146.275 1.146 1.256 0 1.256-.408 1.389-1.62 1.389h-.695c-1.355 0-1.576-.287-1.576-1.62h-.793c-.011.122-.021.231-.021.353 0 1.852 1.112 1.983 2.644 1.983.462 0 .936-.011 1.399-.055 1.333-.133 1.499-1.014 1.499-2.138-.001-2.324-1.731-1.884-3.582-2.016zM76.538 7.646l-2.182-3.437h-.958l2.699 4.274v3.075h.826V8.483L79.7 4.209h-.981zM82.355 7.393c-.937-.055-1.091-.474-1.091-1.278 0-.353.055-.815.386-1.024.341-.21 1.102-.221 1.521-.221h.396c1.135 0 1.355.265 1.421 1.355h.805v-.11c0-1.873-1.113-1.95-2.645-1.95h-.198c-1.531 0-2.512.221-2.512 1.994 0 2.236 1.708 1.983 3.515 2.082.958.044 1.146.275 1.146 1.256 0 1.256-.408 1.389-1.62 1.389h-.694c-1.355 0-1.576-.287-1.576-1.62h-.793c-.011.122-.022.231-.022.353 0 1.852 1.112 1.983 2.644 1.983.462 0 .937-.011 1.399-.055 1.333-.133 1.499-1.014 1.499-2.138 0-2.324-1.73-1.884-3.581-2.016zM86.476 4.991h2.39v6.567h.848V4.991h2.358v-.782h-5.596zM92.909 11.558h4.716v-.705h-3.912V8.131h3.746v-.693h-3.746V4.947h3.912v-.738h-4.716zM102.596 10.5l-2.589-6.291h-1.422v7.349h.805V4.87l2.798 6.688h.837l2.777-6.754v6.754h.837V4.209h-1.443z"/></svg>
